<svg width="32" height="33" viewBox="0 0 32 33" fill="none" xmlns="http://www.w3.org/2000/svg">
<path fill-rule="evenodd" clip-rule="evenodd" d="M29.3333 3.33317H25.8667V0.666504H32V6.79984H29.3333V3.33317ZM16.4 9.4665C16.4 12.2647 14.1316 14.5332 11.3333 14.5332C8.53509 14.5332 6.26667 12.2647 6.26667 9.4665C6.26667 6.66826 8.53509 4.39984 11.3333 4.39984C14.1316 4.39984 16.4 6.66826 16.4 9.4665ZM13.7333 9.4665C13.7333 10.792 12.6588 11.8665 11.3333 11.8665C10.0079 11.8665 8.93333 10.792 8.93333 9.4665C8.93333 8.14102 10.0079 7.0665 11.3333 7.0665C12.6588 7.0665 13.7333 8.14102 13.7333 9.4665ZM19.8667 24.4665V21.7998H23.4667V18.4665H19.8667V15.7998H26.1333V24.4665H19.8667ZM26 10.7332C26 12.8319 24.2987 14.5332 22.2 14.5332C20.1013 14.5332 18.4 12.8319 18.4 10.7332C18.4 8.63449 20.1013 6.93317 22.2 6.93317C24.2987 6.93317 26 8.63449 26 10.7332ZM23.3333 10.7332C23.3333 11.3591 22.8259 11.8665 22.2 11.8665C21.5741 11.8665 21.0667 11.3591 21.0667 10.7332C21.0667 10.1072 21.5741 9.59984 22.2 9.59984C22.8259 9.59984 23.3333 10.1072 23.3333 10.7332ZM5.6 15.7998H17.0667V26.9998H5.6V15.7998ZM8.26667 24.3332V18.4665H14.4V24.3332H8.26667ZM6.13333 29.9998H2.66667L2.66667 26.5332H5.36193e-07L0 32.6665H6.13333V29.9998ZM2.66667 3.33317L2.66667 6.79984H0V0.666504H6.13333V3.33317L2.66667 3.33317ZM29.3333 26.5332V29.9998H25.8667V32.6665H32V26.5332H29.3333Z" fill="white"/>
</svg>
