<svg width="32" height="32" viewBox="0 0 32 32" fill="none" xmlns="http://www.w3.org/2000/svg">
<path fill-rule="evenodd" clip-rule="evenodd" d="M9.33314 9.33314L0.799805 9.33314L0.799805 22.6665H9.33314V31.1998H22.6665V22.6665H31.1998V9.33314L22.6665 9.33314V0.799805H9.33314V9.33314ZM11.9998 3.46647V11.9998L3.46647 11.9998L3.46647 19.9998H11.9998V28.5331H19.9998V19.9998H28.5331V11.9998L19.9998 11.9998V3.46647H11.9998ZM14.6665 7.46647L15.9998 6.13314L17.3331 7.46647H14.6665ZM15.9998 25.8665L14.6665 24.5331H17.3331L15.9998 25.8665ZM24.5331 14.6665L25.8665 15.9998L24.5331 17.3331V14.6665ZM6.13314 15.9998L7.46647 14.6665L7.46647 17.3331L6.13314 15.9998Z" fill="white"/>
</svg>
