<svg width="32" height="33" viewBox="0 0 32 33" fill="none" xmlns="http://www.w3.org/2000/svg">
<path fill-rule="evenodd" clip-rule="evenodd" d="M14.6667 3.00016H11.2V0.333496H14.6667H17.3333H20.8V3.00016L17.3333 3.00016V6.46683H14.6667V3.00016ZM13.8667 15.8002H3.73333V25.6668H13.8667V15.8002ZM6.4 18.4668V23.0002H11.2V18.4668H6.4ZM28.2667 15.8002H18.1333V25.6668H28.2667V15.8002ZM20.8 18.4668V23.0002H25.6V18.4668H20.8ZM20.8 29.6668H17.3333V26.2002H14.6667L14.6667 29.6668H11.2V32.3335H14.6667H17.3333H20.8V29.6668ZM29.3333 3.00016H25.8667V0.333496H32V6.46683H29.3333V3.00016ZM6.13333 29.6668H2.66667L2.66667 26.2002H5.36193e-07L0 32.3335H6.13333V29.6668ZM2.66667 6.46683L2.66667 3.00016L6.13333 3.00016V0.333496H0V6.46683H2.66667ZM10.1333 10.6002C10.1333 11.2629 9.59608 11.8002 8.93333 11.8002C8.27059 11.8002 7.73333 11.2629 7.73333 10.6002C7.73333 9.93742 8.27059 9.40016 8.93333 9.40016C9.59608 9.40016 10.1333 9.93742 10.1333 10.6002ZM12.8 10.6002C12.8 12.7357 11.0688 14.4668 8.93333 14.4668C6.79783 14.4668 5.06667 12.7357 5.06667 10.6002C5.06667 8.46466 6.79783 6.7335 8.93333 6.7335C11.0688 6.7335 12.8 8.46466 12.8 10.6002ZM29.3333 29.6668V26.2002H32V32.3335H25.8667V29.6668H29.3333ZM24.5333 10.6002C24.5333 11.2629 23.9961 11.8002 23.3333 11.8002C22.6706 11.8002 22.1333 11.2629 22.1333 10.6002C22.1333 9.93742 22.6706 9.40016 23.3333 9.40016C23.9961 9.40016 24.5333 9.93742 24.5333 10.6002ZM27.2 10.6002C27.2 12.7357 25.4688 14.4668 23.3333 14.4668C21.1978 14.4668 19.4667 12.7357 19.4667 10.6002C19.4667 8.46466 21.1978 6.7335 23.3333 6.7335C25.4688 6.7335 27.2 8.46466 27.2 10.6002Z" fill="white"/>
</svg>
