<svg width="280" height="94" viewBox="0 0 280 94" fill="none" xmlns="http://www.w3.org/2000/svg">
<path d="M144.956 3.63914C146.553 2.26328 149.803 0.584739 151.671 0.171982C152.321 0.0343964 154.379 -0.0206378 156.248 0.00687928C159.903 0.116948 162.205 0.722324 164.723 2.20825C167.594 3.91431 170.518 7.82174 171.439 11.1788C171.629 11.8668 171.845 12.6097 171.927 12.8299C172.008 13.05 172.089 18.2232 172.143 24.3045L172.251 35.3939H160.58V25.3502C160.58 14.1507 160.553 14.0131 158.82 12.6923C156.789 11.0963 153.215 11.5641 151.698 13.6003L150.967 14.5634V79.0636L151.725 80.0542C152.754 81.4025 153.865 81.9529 155.679 81.9804C158.008 81.9804 159.768 80.7972 160.309 78.8435C160.472 78.3206 160.58 73.5877 160.58 67.9467V57.958H172.251L172.143 69.295C172.116 75.5414 171.981 80.9623 171.872 81.32C171.816 81.569 171.654 82.1248 171.479 82.7274L171.478 82.73C171.402 82.9922 171.323 83.2631 171.25 83.5214C171.006 84.3744 170.275 85.8878 169.625 86.8785C166.809 91.1986 162.178 93.2624 155.3 93.2624C152.159 93.2899 151.536 93.2074 149.613 92.5195C144.739 90.8134 141.544 87.2637 139.892 81.7603C139.323 79.8341 139.323 79.6965 139.323 47.2263C139.323 29.2851 139.404 14.1782 139.513 13.6554C140.298 9.74794 142.41 5.86803 144.956 3.63914Z" fill="#0097A7"/>
<path d="M0 12.0044V0.171996H38.4526V12.0044H25.1838V92.9047H22.6654C21.2573 92.9047 18.6306 92.8222 16.8433 92.7121L13.5397 92.547V12.0044H0Z" fill="#0097A7"/>
<path d="M270.468 0.584752C267.11 1.43778 263.319 3.77674 261.288 6.2808C260.476 7.29893 258.472 10.4909 258.418 10.9037C258.408 10.9332 258.378 11.0474 258.331 11.2209L258.33 11.2242C258.247 11.5357 258.113 12.0364 257.957 12.5822C257.416 14.4534 257.335 15.2789 257.28 19.6266L257.253 23.0112H251.838V35.1187H257.253L257.389 92.7671L263.157 92.8497L268.897 92.9047V35.1187H276.48L276.426 29.12L276.344 23.1488L268.897 22.9837V19.9018C268.897 13.6004 270.143 12.3346 276.534 12.0594L280 11.9218V0.171996L276.019 0.199513C273.609 0.199513 271.389 0.364615 270.468 0.584752Z" fill="#0097A7"/>
<path fill-rule="evenodd" clip-rule="evenodd" d="M101.196 33.8805C103.118 28.5972 108.209 24.1669 113.544 23.1213C115.819 22.681 119.393 22.8186 121.587 23.4239C127.923 25.1575 132.581 30.3583 133.989 37.3201C134.07 37.7053 134.178 44.1719 134.233 51.684L134.341 65.3876H111.567V71.2212C111.567 74.6608 111.703 77.5501 111.865 78.183C113.165 82.9435 119.881 83.4938 121.884 79.0086C122.264 78.1555 122.399 77.2199 122.399 74.936V71.9917H134.395L134.233 75.0736C134.016 78.9535 133.962 79.2012 133.366 81.2099C131.389 87.6214 125.703 92.3819 119.041 93.2074C111.865 94.0879 104.96 90.2906 101.819 83.714C101.223 82.4482 100.654 81.0998 100.573 80.7421C100.544 80.5675 100.485 80.2927 100.424 80.0074L100.424 80.0065L100.424 80.0051L100.424 80.0047C100.369 79.7516 100.313 79.4904 100.275 79.2837C99.9772 77.9629 99.8689 39.4664 100.167 37.8154C100.492 35.9718 100.6 35.5865 101.196 33.8805ZM121.776 36.357C121.424 35.7241 120.72 35.0087 120.097 34.6785C117.389 33.1925 113.463 34.018 112.19 36.302C111.757 37.1 111.703 38.1456 111.621 46.043L111.54 54.9311H122.399V46.1806C122.399 37.6228 122.372 37.4302 121.776 36.357Z" fill="#0097A7"/>
<path fill-rule="evenodd" clip-rule="evenodd" d="M191.18 23.0112C186.035 23.8643 181.621 27.1938 179.022 32.202C178.264 33.6604 178.02 34.4033 177.397 36.7698C177.18 37.7054 177.18 78.816 177.424 79.7791C178.968 86.163 182.948 90.5107 189.149 92.6296C191.939 93.5927 196.461 93.5376 199.25 92.547C205.262 90.3732 209.134 86.1906 210.705 80.1093C211.165 78.3207 211.192 76.7522 211.219 58.3432C211.219 41.3927 211.165 38.2282 210.813 36.6597C209.351 30.3033 204.747 25.2401 198.817 23.4515C197.002 22.9287 193.13 22.681 191.18 23.0112ZM196.461 34.9537C198.194 35.7517 199.223 36.9899 199.44 38.5034C199.521 39.1363 199.575 48.5196 199.521 59.3338L199.52 59.532C199.44 78.5989 199.438 79.0393 198.898 79.9717C198.573 80.4945 197.815 81.2925 197.165 81.7603C196.136 82.4757 195.784 82.5858 194.186 82.5583C192.074 82.5583 191.018 82.0355 189.718 80.4395L188.879 79.3663L188.797 58.756C188.796 58.3397 188.794 57.9313 188.793 57.5307L188.79 56.6909C188.726 39.2465 188.719 37.1258 189.756 36.1386C189.899 36.002 190.063 35.8871 190.249 35.7563C190.313 35.7113 190.38 35.6644 190.449 35.6141C192.399 34.1832 194.403 33.9631 196.461 34.9537Z" fill="#0097A7"/>
<path d="M47.3346 23.9468C48.0387 23.8642 48.6615 23.7267 48.7157 23.6716C48.7698 23.6166 50.4487 23.5616 52.4526 23.5616H56.0542V35.6141L52.7505 35.7241C49.8259 35.8067 49.2573 35.9167 48.0658 36.5221C46.6306 37.2651 45.7099 38.3658 45.1683 40.0443C44.9246 40.7873 44.8162 47.4464 44.735 66.9561L44.6538 92.9047H39.1296C36.0967 92.9047 33.4159 92.8222 33.1992 92.7396C32.793 92.5745 32.766 90.1255 32.766 66.791C32.793 45.4927 32.8743 40.5947 33.1992 38.5584C34.0658 33.1926 37.559 28.1569 41.9729 25.9005C44.4642 24.6347 45.7099 24.1669 47.3346 23.9468Z" fill="#0097A7"/>
<path d="M60.5222 79.2837L61.2534 81.0173C62.7157 84.4569 64.8549 87.3462 67.4546 89.355C69.2689 90.7859 71.6789 91.8315 74.6035 92.5195C75.0638 92.6295 79.7215 92.7671 84.9749 92.8222L94.5068 92.9597V23.5615H83.1335V80.7972H79.6673C76.6074 80.7972 76.0658 80.7146 75.0097 80.1643C73.3037 79.3112 72.6538 77.8528 72.3017 74.3306C72.1664 72.7897 72.031 60.9298 72.031 47.5565V23.5615H60.3868L60.5222 79.2837Z" fill="#0097A7"/>
<path d="M216.526 92.7396C216.147 92.5745 216.093 89.2725 216.093 58.0405V23.534L225.923 23.6441C231.311 23.6991 235.969 23.8092 236.267 23.8918C236.565 23.9743 237.35 24.1944 238.027 24.3871C242.549 25.6253 246.34 28.8448 248.453 33.3026C248.702 33.8306 248.914 34.2551 249.093 34.6933C250.117 37.201 250.077 40.157 250.077 65.5252V92.7671H238.433L238.298 66.3507C238.19 46.9786 238.054 39.6866 237.838 38.9987C236.917 36.357 235.509 35.6141 230.932 35.449L227.737 35.3389V92.9047H222.348C219.369 92.9047 216.77 92.8222 216.526 92.7396Z" fill="#0097A7"/>
</svg>
