<svg width="36" height="49" viewBox="0 0 36 49" fill="none" xmlns="http://www.w3.org/2000/svg">
<path fill-rule="evenodd" clip-rule="evenodd" d="M18.0002 19.12C23.0371 19.12 27.1202 15.0368 27.1202 10C27.1202 4.96317 23.0371 0.880005 18.0002 0.880005C12.9634 0.880005 8.88023 4.96317 8.88023 10C8.88023 15.0368 12.9634 19.12 18.0002 19.12ZM18.0002 14.32C20.3861 14.32 22.3202 12.3859 22.3202 10C22.3202 7.61413 20.3861 5.68 18.0002 5.68C15.6144 5.68 13.6802 7.61413 13.6802 10C13.6802 12.3859 15.6144 14.32 18.0002 14.32Z" fill="#707070"/>
<path fill-rule="evenodd" clip-rule="evenodd" d="M0.240234 49V21.64H35.7602V49H0.240234ZM5.04023 44.2V26.44H30.9602V44.2H5.04023Z" fill="#707070"/>
</svg>
