<svg width="76" height="76" viewBox="0 0 76 76" fill="none" xmlns="http://www.w3.org/2000/svg">
<g filter="url(#filter0_d_741_3994)">
<path d="M64.0256 32.8394L70.6663 26.1986L65.9479 21.4801L57.9252 29.5028H46.4009L55.6857 19.5514L50.9673 14.833L41.5092 24.9577V12.7412L49.1857 5.06471L44.4673 0.346273L38.1728 6.64078L31.532 0L26.8136 4.71844L34.8363 12.7412V24.9578L24.6663 14.833L19.9479 19.5514L29.9445 29.5028H18.0741L10.0514 21.4801L5.33301 26.1986L11.9738 32.8394L5.67916 39.134L10.3976 43.8524L18.0743 36.1757H30.2912L21.3265 45.8071L26.0449 50.5256L34.8363 41.0675V52.5922L26.8136 60.6149L31.532 65.3333L38.1729 58.6924L44.4673 64.9868L49.1857 60.2683L41.5092 52.5918V41.0675L50.9673 50.5256L55.6857 45.8072L46.0542 36.1757H57.925L65.6017 43.8524L70.3202 39.134L64.0256 32.8394Z" fill="#00FFE0"/>
</g>
<defs>
<filter id="filter0_d_741_3994" x="0.333008" y="0" width="75.333" height="75.3335" filterUnits="userSpaceOnUse" color-interpolation-filters="sRGB">
<feFlood flood-opacity="0" result="BackgroundImageFix"/>
<feColorMatrix in="SourceAlpha" type="matrix" values="0 0 0 0 0 0 0 0 0 0 0 0 0 0 0 0 0 0 127 0" result="hardAlpha"/>
<feOffset dy="5"/>
<feGaussianBlur stdDeviation="2.5"/>
<feComposite in2="hardAlpha" operator="out"/>
<feColorMatrix type="matrix" values="0 0 0 0 0 0 0 0 0 0 0 0 0 0 0 0 0 0 0.5 0"/>
<feBlend mode="normal" in2="BackgroundImageFix" result="effect1_dropShadow_741_3994"/>
<feBlend mode="normal" in="SourceGraphic" in2="effect1_dropShadow_741_3994" result="shape"/>
</filter>
</defs>
</svg>
