<svg width="74" height="81" viewBox="0 0 74 81" fill="none" xmlns="http://www.w3.org/2000/svg">
<g filter="url(#filter0_d_1004_4470)">
<path fill-rule="evenodd" clip-rule="evenodd" d="M45.3791 41.2662V24.8486H28.9337V41.2662H45.3791ZM52.2551 17.9864L22.0577 17.9864L22.0577 48.1283H52.2551V17.9864Z" fill="#FFD600"/>
<path fill-rule="evenodd" clip-rule="evenodd" d="M40.5944 0.333496V11.7423H33.7184L33.7184 0.333496L40.5944 0.333496Z" fill="#FFD600"/>
<path fill-rule="evenodd" clip-rule="evenodd" d="M69 38.7585H57.5736V31.8964H69V38.7585Z" fill="#FFD600"/>
<path fill-rule="evenodd" clip-rule="evenodd" d="M16.4264 38.7585L5 38.7585L5 31.8964H16.4264L16.4264 38.7585Z" fill="#FFD600"/>
<path fill-rule="evenodd" clip-rule="evenodd" d="M65.7588 9.35897L58.1275 16.9789L53.2654 12.1266L60.8967 4.50672L65.7588 9.35897Z" fill="#FFD600"/>
<path fill-rule="evenodd" clip-rule="evenodd" d="M13.4161 4.81857L21.0474 12.4385L16.1854 17.2907L8.55409 9.67082L13.4161 4.81857Z" fill="#FFD600"/>
<path fill-rule="evenodd" clip-rule="evenodd" d="M27.0633 63.4714V70.3335H46.6238V63.4714H27.0633Z" fill="#FFD600"/>
<path fill-rule="evenodd" clip-rule="evenodd" d="M27.0633 52.5015V59.3636H46.6238V52.5015H27.0633Z" fill="#FFD600"/>
</g>
<defs>
<filter id="filter0_d_1004_4470" x="0" y="0.333496" width="74" height="80" filterUnits="userSpaceOnUse" color-interpolation-filters="sRGB">
<feFlood flood-opacity="0" result="BackgroundImageFix"/>
<feColorMatrix in="SourceAlpha" type="matrix" values="0 0 0 0 0 0 0 0 0 0 0 0 0 0 0 0 0 0 127 0" result="hardAlpha"/>
<feOffset dy="5"/>
<feGaussianBlur stdDeviation="2.5"/>
<feComposite in2="hardAlpha" operator="out"/>
<feColorMatrix type="matrix" values="0 0 0 0 0 0 0 0 0 0 0 0 0 0 0 0 0 0 0.5 0"/>
<feBlend mode="normal" in2="BackgroundImageFix" result="effect1_dropShadow_1004_4470"/>
<feBlend mode="normal" in="SourceGraphic" in2="effect1_dropShadow_1004_4470" result="shape"/>
</filter>
</defs>
</svg>
